<svg width="117" height="117" viewBox="0 0 117 117" fill="none" xmlns="http://www.w3.org/2000/svg">
<g clip-path="url(#clip0_1087_90731)">
<g clip-path="url(#clip1_1087_90731)">
<path fill-rule="evenodd" clip-rule="evenodd" d="M57.8414 98.9999C57.6634 98.9801 57.4859 98.9487 57.3072 98.9421C53.085 98.7836 48.9424 98.1245 44.9088 96.8647C40.2261 95.4022 36.0174 93.0376 32.1902 89.9867C27.8838 86.5538 24.3321 82.4678 21.6365 77.6553C19.8465 74.4599 18.5523 71.0785 17.8536 67.4754C17.4034 65.155 17.0772 62.8202 17.0164 60.4541C16.7239 49.1066 20.5882 39.3905 28.5005 31.2764C30.7806 28.9381 33.337 26.9316 36.1221 25.2281C37.1324 24.6104 38.2029 24.0915 39.2461 23.5277C39.6155 23.5323 39.7618 23.175 40.0523 23.0332C41.8282 22.1671 43.6521 21.4285 45.5394 20.843C48.1333 20.0381 50.7835 19.5188 53.4837 19.2352C55.4898 19.0244 57.5015 18.9531 59.5137 19.0302C67.0579 19.3185 74.1407 21.2278 80.6482 25.1192C82.5355 26.2476 84.2894 27.5578 85.9437 29.0071C87.3426 30.2328 88.712 31.4852 89.9566 32.8706C92.0801 35.2336 93.8582 37.8362 95.3714 40.6262C96.2823 42.3053 97.149 44.0026 97.7974 45.8049C98.7217 48.3757 99.3543 51.0162 99.6597 53.7303C99.7764 54.7669 99.8191 55.8121 99.899 56.8529C99.9119 57.0172 99.9415 57.1804 99.9634 57.3439V60.1313C99.9424 60.27 99.9087 60.4079 99.9029 60.5475C99.8848 60.9853 99.896 61.4255 99.8623 61.8619C99.7317 63.5468 99.5135 65.2208 99.1822 66.8786C98.5191 70.1934 97.4771 73.3795 95.9578 76.4056C94.8003 78.7105 93.3435 80.8197 91.7459 82.8325C87.1109 88.6703 81.3496 93.0186 74.4419 95.8354C69.6646 97.7834 64.6839 98.7619 59.5374 98.9429C59.3587 98.9491 59.1809 98.9801 59.0027 98.9999L57.8414 98.9999ZM94.5042 42.8502L94.5538 42.7924C94.503 42.677 94.4554 42.5603 94.4019 42.446C93.8419 41.2536 93.211 40.0992 92.4947 38.9944C88.4864 32.8179 83.1426 28.1224 76.5728 24.8487C71.4534 22.2981 65.9976 20.9639 60.2791 20.7046C57.0284 20.557 53.8096 20.8019 50.6158 21.4107C46.1978 22.2532 42.0128 23.7493 38.1158 25.9965C31.0213 30.0867 25.6006 35.7556 22.1116 43.2016C19.8819 47.9603 18.7213 52.979 18.5889 58.2328C18.5425 60.0801 18.6453 61.9204 18.8809 63.7545C19.2105 66.3218 19.8096 68.8235 20.6783 71.2614C20.7147 71.3641 20.7642 71.4625 20.8362 71.6276C20.8809 71.5032 20.9017 71.4485 20.92 71.3931C21.0586 70.9781 21.2911 70.6278 21.6436 70.3651C22.1189 70.0105 22.6792 70.005 23.2342 70.0039C23.5806 70.0031 23.8804 70.1484 24.1541 70.3619C24.7178 70.803 25.0389 71.3966 25.2342 72.0655C25.5162 73.0323 26.0882 73.7899 26.8834 74.3882C27.6182 74.9412 28.4598 75.2566 29.3467 75.4596C30.6138 75.7495 31.9017 75.7937 33.1944 75.7747C34.5782 75.7549 35.9102 75.4775 37.1727 74.9105C39.1876 74.0057 40.7132 72.5897 41.4905 70.4945C42.3975 68.0508 42.7435 65.5235 42.3506 62.9256C42.1314 61.4763 41.6378 60.1324 40.7396 58.9532C40.1639 58.1972 39.421 57.6818 38.5084 57.44C38.0255 57.3121 37.5213 57.2044 37.0255 57.1982C35.6458 57.1804 34.265 57.2206 32.8853 57.2404C32.8519 57.2408 32.8189 57.2706 32.7537 57.302C32.7537 57.4462 32.7557 57.5988 32.7537 57.7519C32.7125 60.6164 32.6802 63.4809 32.6216 66.345C32.6065 67.0731 32.6739 67.7822 32.8174 68.4937C32.918 68.9925 33.2022 69.2645 33.6854 69.3486C33.9263 69.39 34.1712 69.4087 34.4139 69.4431C35.1651 69.5505 35.3223 69.8648 34.9674 70.5762C32.0255 70.7467 29.0809 70.5739 26.1212 70.5049C26.106 70.2833 26.0889 70.1174 26.0848 69.9512C26.0731 69.5013 26.0982 69.473 26.5528 69.3815C26.6287 69.3664 26.7059 69.356 26.7803 69.3358C27.5499 69.1277 28.1707 68.7216 28.5211 67.9811C28.5958 67.8237 28.6426 67.6381 28.6461 67.4645C28.7257 63.1682 28.7989 58.8718 28.8702 54.5755C28.9132 51.9823 28.9427 49.3886 28.9981 46.7954C29.0101 46.2358 28.9515 45.6929 28.8638 45.1438C28.7608 44.4959 28.3965 44.1386 27.7696 44.0096C27.4673 43.9472 27.1644 43.8805 26.8694 43.7895C26.5401 43.6879 26.3226 43.4605 26.2359 43.1183C26.1746 42.8757 26.2176 42.699 26.4466 42.6048C26.678 42.5091 26.9395 42.4335 27.1868 42.4355C31.2129 42.4715 35.2388 42.5188 39.2647 42.5719C39.6241 42.577 39.9878 42.6107 40.3404 42.6785C42.0308 43.0036 43.3445 43.9352 44.3851 45.2702C45.2967 46.44 45.8287 47.7742 45.9034 49.2576C45.9835 50.8565 45.4444 52.2744 44.4908 53.5416C43.6714 54.6305 42.6377 55.4737 41.4593 56.1468C41.3453 56.2119 41.2339 56.2821 41.0855 56.3716C41.7337 56.7161 42.3199 57.0408 42.9178 57.3419C43.3731 57.5709 43.7691 57.874 44.137 58.2204C44.9576 58.9935 45.5809 59.9042 45.9981 60.9485C46.8511 63.0829 47.0394 65.2964 46.5254 67.5211C45.594 71.5547 43.2239 74.4556 39.4034 76.1041C37.5679 76.8965 35.6251 77.2988 33.6373 77.4945C31.5289 77.7018 29.4366 77.6223 27.3663 77.1593C25.5069 76.7435 23.7794 76.032 22.2708 74.8416C22.2247 74.8055 22.1719 74.7777 22.0547 74.7029C22.1302 74.8896 22.1673 75.009 22.2239 75.1183C22.7745 76.1828 23.2828 77.2728 23.8897 78.304C25.9383 81.7823 28.5508 84.7952 31.5982 87.4315C35.6949 90.976 40.2862 93.6409 45.4776 95.2607C49.2049 96.4233 53.0037 97.1363 56.9053 97.2715C60.5333 97.3975 64.1209 97.0603 67.6563 96.2252C77.0635 94.0033 84.793 89.114 90.7388 81.4978C95.5237 75.369 97.8765 68.3104 98.325 60.59C98.4683 58.1243 98.3404 55.6648 97.9607 53.2199C97.565 50.6736 96.9005 48.2028 95.9283 45.8161C95.8819 45.7019 95.8248 45.5922 95.7356 45.4015C95.6268 45.5732 95.5557 45.6712 95.4996 45.777C95.4517 45.8673 95.4346 45.9758 95.3794 46.0603C94.9107 46.7783 93.9334 46.9919 93.232 46.5005C92.9185 46.2804 92.6487 45.9948 92.3748 45.7232C92.0728 45.4236 91.7947 45.1001 91.4959 44.7966C91.1441 44.439 90.721 44.2138 90.2261 44.1018C88.9712 43.817 87.7452 43.9131 86.5279 44.3072C85.6746 44.5839 84.9458 45.0369 84.3211 45.6825C83.3208 46.7156 82.6502 47.932 82.231 49.298C81.8103 50.6666 81.6787 52.076 81.6326 53.4982C81.6248 53.7299 81.6023 53.9624 81.6114 54.1938C81.6148 54.2841 81.6643 54.4131 81.7325 54.4496C81.7991 54.4844 81.9182 54.4282 82.0113 54.4023C82.045 54.3926 82.0704 54.3539 82.0999 54.329C82.6187 53.8892 83.2037 53.561 83.8577 53.3831C84.378 53.2413 84.9087 53.1216 85.4426 53.0479C86.6529 52.8805 87.8362 53.0169 88.9724 53.4792C89.6695 53.7629 90.2452 54.2054 90.6685 54.8374C90.8599 55.1234 90.9549 55.4211 90.9541 55.7768C90.9444 59.9964 90.9475 64.2164 90.948 68.436C90.948 69.132 91.0862 69.3292 91.7495 69.5788C91.8943 69.633 92.0437 69.6764 92.1841 69.74C92.336 69.809 92.4895 69.8822 92.6255 69.9775C92.9141 70.1794 93.0196 70.5898 92.8816 70.9087C92.8216 71.0471 92.732 71.1501 92.5701 71.1645C92.4673 71.1734 92.3648 71.1842 92.2615 71.19C90.4046 71.2927 88.5476 71.2927 86.69 71.1978C86.3877 71.1823 86.1497 71.0912 85.9287 70.8878C85.4995 70.4921 85.5957 69.9748 86.1536 69.7904C86.4102 69.7059 86.6787 69.6582 86.9361 69.5768C87.4742 69.4063 87.6316 69.1831 87.6316 68.617C87.6316 64.7585 87.627 60.9001 87.6372 57.0416C87.6387 56.5119 87.41 56.0771 87.097 55.7148C86.6851 55.2385 86.1184 54.9777 85.4883 54.8568C84.1221 54.5945 82.4673 55.4954 81.8504 56.8107C81.7005 57.13 81.6233 57.4593 81.6194 57.8178C81.5818 61.3015 81.5342 64.7853 81.4903 68.269C81.4888 68.3848 81.49 68.5015 81.4988 68.617C81.5264 68.9719 81.7039 69.2215 82.0364 69.3536C82.1797 69.4106 82.3289 69.4532 82.4727 69.509C82.6524 69.5788 82.8396 69.6377 83.0054 69.7326C83.4068 69.9624 83.4598 70.3425 83.3819 70.7824C83.3304 71.0734 83.1294 71.1567 82.6324 71.1505C82.6067 71.1501 82.5808 71.1494 82.555 71.149C79.187 71.1145 75.8191 71.0827 72.4512 71.0439C71.3938 71.0315 70.3343 71.03 69.2788 70.9692C68.1441 70.9037 67.1206 70.5006 66.2293 69.7818C65.1416 68.9045 64.337 67.8179 63.8047 66.5271C63.3726 65.4797 63.1495 64.3842 63.0669 63.2588C62.9358 61.4763 63.066 59.7216 63.7383 58.0464C64.9727 54.9711 67.1287 52.9979 70.5013 52.591C72.378 52.3647 74.0601 52.8588 75.4048 54.2569C75.5894 54.4491 75.7549 54.6782 75.8643 54.9196C76.281 55.836 76.2823 56.7758 75.8951 57.6988C75.5223 58.5878 74.553 58.9179 73.6983 58.4796C73.3518 58.3022 73.0913 58.0352 72.9427 57.6802C72.8186 57.3842 72.7244 57.0745 72.6358 56.7657C72.522 56.3696 72.4253 55.9686 72.3243 55.5687C72.2122 55.1249 71.9219 54.8328 71.5342 54.6162C71.2244 54.4429 70.8936 54.3453 70.5403 54.3309C69.7561 54.2992 69.1136 54.6259 68.5579 55.1467C68.0113 55.6586 67.6431 56.289 67.3594 56.9777C67.1343 57.5241 67.0725 58.0987 67.0198 58.6769C66.9107 59.884 66.7722 61.0895 66.7071 62.2994C66.6448 63.4631 66.7715 64.6167 67.0994 65.7436C67.5742 67.3765 68.6482 68.3775 70.2801 68.8045C71.0838 69.0149 71.9053 69.0932 72.7317 69.1033C74.1641 69.1211 75.5962 69.1153 77.0283 69.1258C77.21 69.1269 77.3657 69.0785 77.4793 68.9467C77.7783 68.5995 78.0171 68.2077 78.0376 67.7431C78.1062 66.1962 78.1775 64.6492 78.2012 63.1015C78.2486 60.0177 78.2583 56.9335 78.2979 53.8497C78.3081 53.0638 78.3003 52.2675 78.4212 51.4948C78.7449 49.4216 79.6494 47.5964 80.9707 45.9766C82.1875 44.485 83.6868 43.3834 85.5066 42.7289C86.5166 42.3654 87.5513 42.0991 88.6143 41.9558C89.7183 41.8062 90.8272 41.7818 91.9322 41.9472C92.844 42.084 93.71 42.3654 94.5042 42.8501L94.5042 42.8502ZM32.8297 49.9358L32.8409 49.9362C32.8214 50.8391 32.8011 51.742 32.782 52.6449C32.774 53.0317 32.7647 53.4188 32.7628 53.8059C32.7608 54.2717 32.9293 54.6395 33.398 54.8007C33.6636 54.8921 33.9393 55.0181 34.2107 55.0196C35.2415 55.025 36.2728 55.001 37.3028 54.9592C38.0279 54.9301 38.7347 54.7801 39.4026 54.4829C40.2715 54.0954 40.93 53.4975 41.316 52.6085C41.9917 51.0519 42.1548 49.4538 41.7234 47.8088C41.5562 47.1698 41.3301 46.537 40.8653 46.053C39.9581 45.1086 38.8653 44.5223 37.5232 44.5006C36.712 44.4878 35.8978 44.4533 35.0884 44.499C34.2601 44.546 33.5245 44.8478 33.0699 45.6034C32.9759 45.76 32.9161 45.9611 32.9107 46.144C32.8736 47.4077 32.8546 48.6718 32.8297 49.9358Z" fill="#293340"/>
<path fill-rule="evenodd" clip-rule="evenodd" d="M57.2848 69.4839C56.2672 69.88 55.3302 70.2768 54.371 70.6089C53.3776 70.9526 52.3449 71.1041 51.2877 71.0561C50.7294 71.0309 50.193 70.9111 49.6618 70.7418C48.8473 70.4825 48.2978 69.9365 47.9235 69.1913C47.4542 68.2574 47.391 67.2604 47.4972 66.2455C47.6535 64.7474 48.3859 63.5775 49.5753 62.6757C50.3942 62.0553 51.3053 61.6035 52.2497 61.2164C53.2868 60.7917 54.3341 60.3921 55.3708 59.9659C55.8459 59.7702 56.3219 59.5725 56.715 59.218C57.3004 58.6898 57.6767 58.076 57.6 57.2541C57.5544 56.7677 57.5622 56.2678 57.4496 55.7974C57.1442 54.519 55.7787 53.8916 54.5876 54.4454C53.9865 54.7248 53.5226 55.1654 53.1386 55.6955C52.7414 56.2438 52.4535 56.8487 52.2709 57.499C52.2013 57.7477 52.0741 57.9369 51.8859 58.105C51.3754 58.56 50.7921 58.7615 50.1059 58.6801C49.8022 58.6441 49.5749 58.5069 49.3817 58.2829C48.9232 57.7512 48.8232 57.1424 48.9728 56.4736C49.1383 55.7334 49.5185 55.1146 50.0338 54.5717C50.788 53.7769 51.7165 53.2588 52.7384 52.8988C54.3324 52.3369 55.955 52.1866 57.6046 52.6244C58.4792 52.8566 59.2538 53.2789 59.9147 53.9052C60.0956 54.0768 60.213 54.2807 60.3293 54.5008C60.7018 55.2064 60.7885 55.9454 60.7746 56.7375C60.7062 60.5304 60.675 64.3238 60.6308 68.1168C60.6291 68.233 60.6269 68.3493 60.6286 68.4651C60.6347 68.9317 60.8385 69.1859 61.2992 69.263C61.5656 69.3076 61.8378 69.3134 62.1071 69.3413C62.2602 69.3572 62.4176 69.3649 62.5641 69.4072C62.8671 69.4944 62.9716 69.6804 62.9201 69.9943C62.8183 70.6178 62.5021 70.9386 61.8607 70.9631C61.3878 70.9812 60.9105 70.9286 60.4376 70.8805C60.1964 70.8561 59.9599 70.7763 59.7228 70.7162C58.8009 70.4821 57.924 70.1578 57.2848 69.4839L57.2848 69.4839ZM56.9535 61.3408C55.7965 61.7972 54.7064 62.1979 53.7021 62.7834C53.2028 63.0745 52.7333 63.4186 52.2628 63.7565C51.6122 64.2238 51.2611 64.8869 51.0963 65.6545C51.0426 65.9056 50.9994 66.1633 50.9921 66.4191C50.9723 67.0864 51.0824 67.7316 51.4276 68.3156C51.6374 68.6702 51.9171 68.9476 52.3439 69.0301C52.922 69.1417 53.4962 69.1247 54.0705 68.9922C55.0597 68.7643 55.9003 68.2493 56.7099 67.6634C56.8886 67.534 56.9591 67.3914 56.9489 67.1786C56.9396 66.986 56.9613 66.7919 56.966 66.5985C56.9977 65.2581 57.0377 63.9177 57.0536 62.5769C57.0578 62.184 56.9921 61.7899 56.9535 61.3407V61.3408Z" fill="#293340"/>
<path d="M50.012 50.9233H49.2175C49.1655 50.7954 49.1167 50.678 49.0701 50.5602C48.3677 48.7737 47.6636 46.9885 46.9661 45.2001C46.8711 44.9564 46.7808 44.7219 46.5261 44.5975C46.5015 44.5855 46.4971 44.5313 46.4839 44.4975C46.7378 44.3514 48.1626 44.3666 48.7207 44.52C48.7156 44.5549 48.7246 44.6057 48.7041 44.6246C48.3962 44.9099 48.4478 45.2369 48.5784 45.5806C48.958 46.5792 49.333 47.5798 49.7127 48.578C49.7529 48.6838 49.8154 48.7811 49.8662 48.8791C50.0986 48.8191 50.1819 48.6555 50.2478 48.4676C50.6172 47.4097 50.9915 46.3533 51.3623 45.2958C51.499 44.9048 51.4963 44.9052 51.1418 44.6936C51.0913 44.6634 51.0522 44.6153 50.9736 44.5448C51.5723 44.3561 52.1274 44.465 52.6914 44.5146C52.7393 44.687 52.6211 44.7866 52.5278 44.8777C52.2813 45.1191 52.1397 45.4136 52.019 45.7314C51.4065 47.3454 50.7834 48.9551 50.1631 50.5656C50.1172 50.6846 50.0637 50.8008 50.012 50.9233L50.012 50.9233Z" fill="#293340"/>
<path d="M70.2891 51.1579C69.7922 51.2571 69.2986 51.2331 68.8023 51.1687C68.8023 51.1153 68.7922 51.0808 68.804 51.0703C69.0564 50.8402 69.0894 50.5495 69.0769 50.2263C69.0576 49.7241 69.0642 49.2204 69.0742 48.7174C69.0818 48.3508 69.0994 47.9885 68.6929 47.7253C68.9565 47.4638 69.1716 47.21 69.4273 47.0069C69.7195 46.7744 69.9431 46.8341 70.1633 47.1526C70.4309 47.0902 70.7004 46.9976 70.9763 46.9701C71.294 46.9387 71.6174 46.9589 71.938 46.9666C72.2795 46.9751 72.5149 47.1607 72.6851 47.4429C72.8565 47.7261 72.9412 48.0373 72.9343 48.3643C72.926 48.7635 72.8887 49.1619 72.8711 49.5606C72.8579 49.8567 72.8474 50.1535 72.8526 50.4499C72.8567 50.6902 72.825 50.9525 73.1402 51.0971C72.6062 51.3242 72.1116 51.2912 71.5696 51.1684C72.0515 50.2248 71.8369 49.2432 71.8298 48.276C71.8276 47.9691 71.6575 47.8025 71.3987 47.7013C70.8606 47.4913 70.3569 47.6881 70.1775 48.2338C70.0757 48.5438 70.0593 48.8902 70.0527 49.2215C70.0432 49.6978 70.064 50.1756 70.0996 50.6507C70.1109 50.8045 70.209 50.9518 70.2891 51.1579Z" fill="#293340"/>
<path d="M56.6016 50.9794C56.2476 51.1228 55.5772 51.1251 55.0698 50.9631C55.0847 50.9194 55.0894 50.8682 55.1162 50.8345C55.3445 50.5489 55.4382 50.2118 55.4338 49.8595C55.4265 49.2539 55.4043 48.647 55.3474 48.0448C55.3335 47.8948 55.1636 47.7592 55.061 47.6119C55.5083 47.0241 55.7622 46.8354 56.2302 46.759L56.4238 47.0163C56.7495 46.9361 57.0564 46.8268 57.3716 46.7924C57.6865 46.7579 58.0105 46.7896 58.3298 46.8075C58.6267 46.8241 58.8516 46.99 58.9641 47.2504C59.0845 47.5298 59.2026 47.8297 59.2253 48.1277C59.2598 48.5881 59.2141 49.0547 59.1982 49.5181C59.1924 49.6855 59.1665 49.8525 59.1655 50.0199C59.1633 50.3486 59.0771 50.7016 59.4971 50.9453C58.9243 51.1518 58.4355 51.0786 57.8733 51.0251C58.3472 50.4439 58.2817 49.8145 58.2434 49.1875C58.2258 48.9043 58.2263 48.6202 58.2275 48.3366C58.229 47.7979 57.6807 47.3496 57.1667 47.4794C57.0303 47.5139 56.8906 47.5534 56.7668 47.6185C56.562 47.7262 56.438 47.8898 56.4402 48.1436C56.4478 48.9562 56.436 49.7692 56.45 50.5818C56.4522 50.7147 56.5483 50.8461 56.6016 50.9794V50.9794Z" fill="#293340"/>
<path fill-rule="evenodd" clip-rule="evenodd" d="M68.0047 48.7051C67.7596 48.7051 67.555 48.7051 67.3506 48.7051C66.783 48.7051 66.2156 48.7024 65.6482 48.7066C65.3563 48.7086 65.2547 48.7888 65.1961 49.0705C65.1702 49.1949 65.1617 49.3278 65.1741 49.4538C65.1951 49.6584 65.2508 49.8591 65.272 50.0637C65.3213 50.5287 65.5977 50.76 66.0301 50.8724C66.6111 51.0228 67.3755 50.8848 67.8343 50.4005C67.805 50.5175 67.8065 50.5927 67.7708 50.6399C67.4747 51.0321 67.1116 51.3138 66.6036 51.3917C66.0821 51.4715 65.5767 51.4196 65.073 51.2879C64.7142 51.1941 64.4334 50.9837 64.2833 50.655C63.962 49.9537 63.7793 49.2182 63.9581 48.4435C64.158 47.5774 64.7996 46.9907 65.6829 46.907C66.0474 46.8725 66.4358 46.8966 66.7898 46.9865C67.4434 47.1523 67.8357 47.6193 68.0003 48.268C68.032 48.3939 68.0047 48.535 68.0047 48.7051H68.0047ZM65.3516 48.1827C65.4046 48.2029 65.4622 48.2432 65.5218 48.2451C65.9969 48.2606 66.4722 48.2769 66.9476 48.2749C67.0999 48.2746 67.1546 48.1525 67.0845 47.994C66.9705 47.7371 66.7725 47.555 66.523 47.4321C65.8807 47.1171 65.3589 47.4453 65.3516 48.1827V48.1827Z" fill="#293340"/>
<path d="M63.4488 50.2007C63.5298 50.4929 63.4302 50.6761 63.2884 50.8296C63.0303 51.1082 62.7432 51.3408 62.3269 51.3272C61.9414 51.3144 61.5523 51.3427 61.1707 51.3012C60.4964 51.2276 60.0286 50.8606 59.7996 50.2119C59.5547 49.519 59.5567 48.8107 59.7644 48.119C59.9617 47.4629 60.4681 47.0673 61.1043 46.8913C61.8169 46.6937 62.5061 46.827 63.1538 47.194C63.4507 47.3618 63.5501 47.623 63.574 47.9275C63.5987 48.2457 63.3423 48.4057 63.0623 48.2426C62.9446 48.1744 62.8509 48.0558 62.7637 47.9465C62.6434 47.7958 62.5496 47.6226 62.4251 47.4757C62.1116 47.1056 61.6788 47.1068 61.3633 47.4765C61.0935 47.7919 60.9769 48.1728 60.9385 48.5778C60.8819 49.1757 60.9598 49.7597 61.1175 50.3386C61.1827 50.5762 61.3252 50.7134 61.5364 50.8063C62.096 51.0532 62.8316 50.8966 63.242 50.4413C63.2996 50.377 63.355 50.3099 63.4488 50.2007L63.4488 50.2007Z" fill="#293340"/>
<path d="M73.646 47.1885C74.103 46.813 74.3718 46.367 74.4985 45.835C74.7246 45.845 74.8291 45.9625 74.8738 46.1361C74.9155 46.2976 74.9353 46.4651 74.9709 46.6286C75.0496 46.9901 75.1572 47.0738 75.5266 47.0668C75.5767 47.0661 75.6265 47.0668 75.6809 47.0668C75.762 47.2401 75.7256 47.3474 75.5471 47.3943C75.4976 47.4075 75.4463 47.4148 75.396 47.4268C75.0957 47.4966 75.0708 47.5245 75.0625 47.8438C75.0566 48.05 75.0608 48.2565 75.0608 48.4627C75.0608 49.1203 75.0581 49.7779 75.062 50.4355C75.0644 50.7908 75.0918 50.8191 75.4316 50.9152C75.5054 50.9362 75.5789 50.959 75.6492 50.9896C75.6811 51.0036 75.7041 51.0381 75.7515 51.0822C75.6565 51.2469 75.499 51.3055 75.3367 51.2989C75.0559 51.2872 74.771 51.2644 74.4971 51.2051C74.2498 51.152 74.1243 50.94 74.123 50.6451C74.1191 49.8325 74.1216 49.0203 74.1216 48.2081C74.1216 48.1046 74.1118 48.0004 74.1235 47.8988C74.1504 47.659 74.094 47.4695 73.8579 47.3575C73.7922 47.3261 73.7402 47.2649 73.646 47.1885L73.646 47.1885Z" fill="#293340"/>
<path d="M54.0397 50.9354C53.4081 51.1024 53.069 51.0989 52.5133 50.9253C52.7834 50.6742 52.7431 50.3494 52.757 50.0356C52.776 49.5988 52.8087 49.1629 52.8229 48.7261C52.8336 48.3739 52.7821 48.0298 52.5617 47.7388C52.463 47.6082 52.4989 47.5016 52.58 47.39C52.7892 47.1013 53.0729 46.9037 53.3847 46.7452C53.5382 46.6669 53.6735 46.7282 53.7326 46.8789C53.7831 47.0068 53.8087 47.1521 53.8107 47.29C53.8239 48.2673 53.8312 49.2446 53.8332 50.2216C53.8334 50.4665 53.8254 50.7075 54.0397 50.9354Z" fill="#293340"/>
<path fill-rule="evenodd" clip-rule="evenodd" d="M85.8846 74.2509C85.8895 75.5146 84.9278 76.49 83.6732 76.4935C82.4901 76.497 81.5018 75.4999 81.4911 74.2827C81.4813 73.1919 82.3143 72.0344 83.6954 72.0251C85.0877 72.0154 85.9242 73.2702 85.8846 74.2509ZM81.7757 74.2633C81.7372 75.4383 82.8275 76.2218 83.6727 76.2156C84.5848 76.209 85.609 75.4534 85.606 74.2975C85.6029 73.2364 84.7083 72.2994 83.6866 72.3122C82.5687 72.3262 81.7745 73.1368 81.7757 74.2634V74.2633Z" fill="#293340"/>
<path d="M53.3384 46.036C52.9961 46.0306 52.7615 45.8531 52.7629 45.6001C52.7654 45.2579 53.0195 44.9518 53.2952 44.9591C53.6155 44.968 53.8364 45.1858 53.8264 45.4834C53.814 45.8589 53.6528 46.0411 53.3384 46.036Z" fill="#293340"/>
<path fill-rule="evenodd" clip-rule="evenodd" d="M83.7634 75.4608H82.5234C82.6467 75.3368 82.783 75.2535 82.8342 75.1337C82.8862 75.0128 82.8562 74.8555 82.8567 74.7141C82.8586 74.3661 82.8579 74.0185 82.8574 73.6705C82.8572 73.2411 82.8567 73.2411 82.512 73.011C82.5815 72.9935 82.6243 72.9734 82.6672 72.9734C83.0791 72.973 83.4927 72.9579 83.9031 72.9862C84.1011 72.9997 84.3125 73.0621 84.4839 73.1617C84.821 73.3582 84.8196 73.7716 84.4907 73.9859C84.3467 74.0793 84.1726 74.1274 83.9739 74.2122C84.3816 74.4056 84.5459 74.7292 84.5742 75.1434C84.5784 75.2078 84.6768 75.3136 84.7327 75.3139C84.7961 75.3143 84.8757 75.2283 84.9202 75.1613C84.9624 75.0973 84.9687 75.009 84.9941 74.9191C85.0454 74.9563 85.0803 74.9694 85.0806 74.9838C85.0901 75.2961 84.9426 75.455 84.6262 75.4794C84.2551 75.5077 84.1499 75.4286 84.1028 75.0834C84.094 75.0194 84.0945 74.9547 84.0906 74.8904C84.0632 74.4327 83.9172 74.3002 83.4353 74.2956C83.2781 74.8435 83.343 75.1303 83.7634 75.4608H83.7634ZM83.3787 74.1452C83.5925 74.1123 83.7483 74.1072 83.8921 74.0627C84.1685 73.9762 84.2944 73.7112 84.2019 73.4531C84.1084 73.1919 83.7463 73.0268 83.5022 73.1474C83.4461 73.1749 83.3872 73.2597 83.384 73.321C83.3709 73.574 83.3787 73.8286 83.3787 74.1452V74.1452Z" fill="#293340"/>
</g>
</g>
<defs>
<clipPath id="clip0_1087_90731">
<rect width="82.9624" height="79.9999" fill="white" transform="translate(17.001 19)"/>
</clipPath>
<clipPath id="clip1_1087_90731">
<rect width="82.9624" height="79.9999" fill="white" transform="translate(17.001 19)"/>
</clipPath>
</defs>
</svg>
