<svg width="117" height="117" viewBox="0 0 117 117" fill="none" xmlns="http://www.w3.org/2000/svg">
<g clip-path="url(#clip0_1087_90774)">
<g clip-path="url(#clip1_1087_90774)">
<path fill-rule="evenodd" clip-rule="evenodd" d="M58.8321 109.036C58.6358 108.991 58.4402 108.945 58.2425 108.903C57.1673 108.677 56.2327 108.187 55.4793 107.382C55.1758 107.058 54.886 107.026 54.4361 107.134C52.3357 107.64 50.3052 107.006 49.9363 104.468C49.7176 102.967 50.1004 101.588 51.0518 100.407C51.7603 99.5273 52.7449 99.4573 53.5245 100.178C53.6773 100.32 53.8311 100.529 53.8577 100.724C54.0269 101.974 53.8692 103.149 52.8826 104.061C52.6805 104.248 52.4095 104.591 52.1338 104.312C51.8726 104.045 52.1673 103.746 52.3819 103.557C53.0718 102.948 53.2137 102.132 53.2457 101.292C53.2708 100.608 52.7232 100.243 52.0977 100.526C51.813 100.654 51.5289 100.888 51.3599 101.148C50.6087 102.299 50.4073 103.576 50.7493 104.896C51.1094 106.292 52.7674 107.079 54.1158 106.556C54.5259 106.398 54.6902 106.1 54.6238 105.663C54.5025 104.847 54.6268 104.066 54.9734 103.319C55.2166 102.796 55.6275 102.457 56.1224 102.178C56.3106 102.073 56.5298 101.848 56.5533 101.655C56.6837 100.596 56.7508 99.5282 56.8516 98.4653C56.9688 97.2305 57.0342 95.9852 57.242 94.7646C57.43 93.6602 57.8997 92.6378 58.5809 91.729C58.6441 91.6449 58.6922 91.5485 58.7652 91.4295C58.066 91.0838 57.348 91.0667 56.629 91.1093C54.7808 91.2198 53.3685 92.2213 52.9451 93.7622C52.8365 94.158 52.8365 94.5974 52.8612 95.0131C52.88 95.3362 53.0511 95.6262 53.4429 95.6414C53.8294 95.6574 54.1251 95.4808 54.2491 95.1132C54.3585 94.7882 54.3895 94.4359 54.4984 94.1099C54.5494 93.9558 54.7008 93.834 54.8062 93.6979C54.9027 93.8538 55.0965 94.0239 55.0765 94.1636C55.0059 94.6682 54.9351 95.1963 54.7269 95.6536C54.4803 96.1959 53.9666 96.436 53.356 96.3575C52.6881 96.2715 52.2217 95.8889 52.139 95.2323C52.0787 94.7476 52.1046 94.2251 52.2217 93.7518C52.6182 92.1513 54.2432 90.4828 56.1641 90.5084C57.0721 90.5206 57.9818 90.5631 58.8851 90.6501C59.2327 90.6841 59.4981 90.6558 59.7315 90.3959C59.8043 90.3147 59.8895 90.2098 59.984 90.191C60.1634 90.155 60.3531 90.1749 60.5394 90.1711C60.4986 90.3242 60.4876 90.4942 60.4107 90.6265C60.3128 90.7974 60.1627 90.9382 60.0037 91.1291C60.3609 91.3142 60.6634 91.5571 60.9986 91.6194C61.2686 91.6695 61.6155 91.5646 61.8668 91.4209C63.046 90.7446 64.2391 90.7502 65.4351 91.3142C66.5982 91.8631 67.2398 92.8003 67.3067 94.0965C67.3343 94.6135 67.3333 95.1349 67.3096 95.6527C67.2615 96.6788 66.5423 97.2815 65.4351 97.2504C64.463 97.2229 63.585 96.4076 63.6053 95.5118C63.609 95.3475 63.7864 95.1879 63.8839 95.0263C64.0125 95.1415 64.1627 95.2407 64.2635 95.3758C64.3348 95.4694 64.3355 95.614 64.3714 95.7339C64.5357 96.2961 64.8787 96.5899 65.3966 96.6173C65.919 96.6437 66.3675 96.3452 66.567 95.836C67.2784 94.0257 66.1304 92.0124 64.2186 91.6562C63.2906 91.4833 62.4952 91.5911 61.8829 92.4753C62.0101 92.7276 62.1566 93.0337 62.3175 93.3332C62.9498 94.5162 62.9393 95.6933 62.2142 96.8204C61.8348 97.4109 61.3875 97.9636 60.9276 98.4955C60.6507 98.8149 60.6915 98.9282 61.0164 99.2098C61.7601 99.8513 62.5159 100.519 63.0816 101.31C63.4368 101.806 63.5675 102.536 63.6034 103.173C63.6541 104.075 63.5128 104.987 63.4871 105.895C63.4825 106.055 63.6024 106.31 63.7325 106.366C64.5535 106.72 65.4071 106.809 66.2503 106.447C67.1226 106.073 67.4427 105.314 67.4908 104.435C67.5438 103.476 67.315 102.564 66.8599 101.714C66.794 101.591 66.7088 101.473 66.6134 101.371C66.3648 101.101 66.0636 100.922 65.691 101.056C65.3075 101.194 65.2625 101.563 65.3058 101.887C65.3807 102.445 65.5497 102.989 65.6317 103.546C65.6571 103.721 65.5316 103.918 65.4747 104.104C65.3226 103.982 65.0772 103.884 65.0338 103.731C64.8531 103.086 64.6681 102.431 64.6114 101.767C64.5604 101.163 64.8062 100.616 65.4315 100.358C66.0709 100.092 66.5716 100.365 66.9808 100.833C68.056 102.062 68.4342 103.51 68.1146 105.091C67.808 106.607 66.4774 107.513 64.8041 107.275C63.7289 107.123 62.8626 107.1 62.1217 108.086C61.69 108.66 60.9024 108.826 60.1766 108.946C60.0729 108.963 59.9723 109.005 59.8702 109.036L58.8321 109.036ZM55.5652 106.505C58.0232 109.19 61.263 108.709 62.4825 106.676C61.9944 106.1 61.4414 105.588 61.0589 104.97C60.0789 103.388 59.461 101.667 59.4017 99.7814C59.3924 99.4715 59.2845 99.3052 58.9595 99.3175C58.5826 99.3326 58.2039 99.3298 57.8296 99.3666C57.7203 99.377 57.5413 99.4886 57.5308 99.5707C57.4451 100.271 57.3782 100.975 57.3326 101.679C57.3169 101.924 57.4151 102.09 57.7212 102.165C58.7112 102.41 59.2015 103.161 59.3602 104.091C59.5059 104.941 59.0523 105.607 58.3995 106.111C58.2415 106.232 57.9761 106.214 57.761 106.261L57.6634 106.076C57.8636 105.826 58.0584 105.573 58.2654 105.33C58.6687 104.857 58.7735 104.326 58.5533 103.749C58.3475 103.21 57.9241 102.929 57.3335 102.784C56.9793 104.174 56.5787 105.495 55.5652 106.505ZM57.5208 98.762C57.9949 98.6921 58.4109 98.6013 58.8311 98.5787C59.1741 98.5597 59.3081 98.4086 59.3233 98.0893C59.3338 97.8861 59.3763 97.683 59.3782 97.4799C59.3934 95.9275 59.7996 94.4764 60.4827 93.0904C60.8235 92.3979 60.7989 92.3847 60.1433 91.9538C59.7928 91.7233 59.482 91.7422 59.2386 92.0729C58.9888 92.412 58.7386 92.7626 58.5647 93.1434C57.761 94.9073 57.6255 96.7987 57.5208 98.7619L57.5208 98.762ZM60.1206 99.514C59.823 101.067 61.4331 104.976 62.7408 105.848C63.2339 104.602 63.0943 103.367 62.7471 102.176C62.3626 100.859 61.3047 100.132 60.1207 99.514L60.1206 99.514ZM61.2913 93.1254C60.3768 94.7513 60.084 96.5068 59.9451 98.4134C60.939 97.5611 61.6502 96.6447 62.0577 95.5138C62.2967 94.8468 61.9168 93.6308 61.2913 93.1254V93.1254ZM56.3106 102.925C55.5923 103.082 54.9661 104.919 55.3914 105.621C56.0281 105.097 56.5381 103.599 56.3106 102.925Z" fill="#293340"/>
<path d="M12.3955 64.3891C12.4897 63.9138 12.5586 63.4321 12.6836 62.9643C13.3267 60.5514 15.1738 59.0274 17.6641 58.846C18.4863 58.7865 19.2466 59.0302 19.9937 59.3421C20.2759 59.4602 20.5815 59.6906 20.8159 59.2325C20.8594 59.1485 21.0742 59.1257 21.2109 59.1209C21.6484 59.1078 22.0869 59.1163 22.5576 59.1163V63.0512C22.0191 63.0512 21.4863 63.0843 20.9609 63.0334C20.7661 63.0144 20.5718 62.817 20.4126 62.6638C20.3062 62.5599 20.2691 62.3871 20.1875 62.253C19.2998 60.7876 17.6475 60.3491 16.1616 61.2249C15.8667 61.3997 15.5981 61.7021 15.4385 62.0083C14.6353 63.552 14.439 65.1817 14.9692 66.8493C15.416 68.256 16.5537 69.0931 17.8315 69.0081C18.9897 68.9306 19.7578 68.2475 20.3257 67.2924C20.5063 66.9881 20.6226 66.5507 20.8887 66.4184C21.1406 66.2938 21.5513 66.4893 21.8916 66.5489C22.2305 66.6084 22.5679 66.6755 22.9106 66.7397C21.9697 69.5381 20.0151 71.0167 17.6909 70.9874C15.6094 70.9599 14.0229 70.0124 13.167 68.0822C12.8232 67.3058 12.7012 66.4299 12.4824 65.5985C12.4434 65.4502 12.4243 65.2961 12.3955 65.1449V64.3891Z" fill="#293340"/>
<path d="M62.8397 31.4792H55.1654C55.3187 31.3157 55.473 31.1542 55.6239 30.9908C56.059 30.5203 55.9159 29.9978 55.2841 29.8334C55.015 29.7635 54.725 29.7569 54.4433 29.7541C51.8129 29.7201 49.9281 28.0714 49.4814 25.4562C49.2611 24.1675 49.5019 22.9394 49.9403 21.7574C50.4799 20.3025 51.1103 18.8796 51.7328 17.4577C52.2929 16.1775 52.977 14.9361 53.1093 13.5197C53.1688 12.8906 53.1093 12.2321 52.9877 11.6104C52.8495 10.9065 52.392 10.4663 51.622 10.3783C51.4457 10.3585 51.2128 10.1365 51.1469 9.95516C50.8817 9.23141 51.3588 8.2734 52.0927 8.04006C52.2758 7.9825 52.5351 8.02022 52.7104 8.10811C53.2167 8.3622 53.4911 8.81856 53.6488 9.3514C54.0067 10.5664 53.9662 11.806 53.873 13.0484C53.6835 15.5615 52.8778 17.931 52.2148 20.3383C51.934 21.3549 51.8056 22.4358 51.7685 23.4929C51.725 24.7382 52.3656 25.6962 53.5385 26.1308C54.3969 26.4491 55.3183 26.6768 56.2279 26.7638C58.6117 26.9915 61.0023 27.0142 63.3666 26.5295C63.7636 26.4482 64.1566 26.3131 64.5272 26.1488C65.828 25.5733 66.4062 24.5342 66.3651 23.1396C66.3222 21.679 65.9867 20.2712 65.4745 18.9145C64.3803 16.0159 64.1547 13.0134 64.2982 9.95797C64.3285 9.33541 64.5297 8.78738 64.9872 8.35378C65.3651 7.99569 65.807 7.9012 66.2919 8.10811C66.7592 8.30837 67.0561 8.82137 67.039 9.37123C67.0233 9.90034 66.787 10.2612 66.2577 10.4219C65.3422 10.6996 65.0468 11.3799 64.9672 12.2434C64.8417 13.6209 65.2309 14.8925 65.7733 16.1237C66.4447 17.6466 67.164 19.1479 67.8529 20.6633C68.6708 22.4631 68.7069 24.3641 68.4354 26.2631C68.1693 28.1337 65.7855 29.8977 63.8471 29.7786C63.5805 29.7616 63.3036 29.703 63.0497 29.754C62.7968 29.8041 62.4389 29.9127 62.3607 30.0961C62.2563 30.3398 62.3476 30.6874 62.4164 30.9756C62.4516 31.1202 62.6244 31.2326 62.8397 31.4792V31.4792Z" fill="#293340"/>
<path d="M55.3032 63.9837V68.9023H56.7185V70.7767H51.4956V68.9382H52.9524V60.8934L51.5088 61.0124V59.1039H52.1711C53.2559 59.1039 54.342 59.1266 55.4265 59.0917C55.8237 59.0794 55.9597 59.2248 56.0759 59.5744C56.8884 62.0176 57.7219 64.4534 58.5513 66.8908C58.6191 67.0912 58.7053 67.2858 58.7825 67.4823L58.9233 67.4926L61.6936 59.1219H65.9773V61.0068L64.5818 60.8971V68.907H65.9783V70.7711H60.9397V68.9335H62.3838V63.2837C62.2724 63.5594 62.2043 63.7107 62.1489 63.8666C61.396 65.9819 60.6355 68.0945 59.9021 70.2165C59.7615 70.6227 59.5469 70.7966 59.1216 70.808C57.8047 70.8438 57.8169 70.8494 57.4006 69.6147C56.8174 67.8894 56.2158 66.1709 55.6196 64.4495C55.5635 64.2898 55.4929 64.1358 55.4287 63.979L55.3032 63.9837Z" fill="#293340"/>
<path d="M96.6614 63.1502V68.905H98.248V70.7776H93.0234V68.9381H94.4802V60.8933L93.0383 61.0123V59.0178C93.1624 59.0178 93.3115 59.0132 93.4597 59.0188C94.3865 59.05 95.3132 59.0963 96.2415 59.1095C96.5584 59.1142 96.7483 59.2257 96.9277 59.4894C98.4558 61.7379 99.9985 63.976 101.537 66.2171C101.634 66.3579 101.74 66.4919 101.905 66.6234C102.141 64.7726 102.018 62.9179 102.07 61.0169H100.583V59.1302H105.607V60.9792H104.161V68.8955C104.24 68.905 104.302 68.9201 104.36 68.9183C105.241 68.8871 105.268 68.8966 105.268 69.8347C105.268 70.1331 105.268 70.4319 105.268 70.769H100.077C100.214 70.1096 99.9126 69.3539 100.657 68.7603L96.8262 63.1069L96.6614 63.1502Z" fill="#293340"/>
<path fill-rule="evenodd" clip-rule="evenodd" d="M36.9282 70.7987C36.1167 70.7987 35.3638 70.8175 34.6113 70.7836C34.4497 70.7759 34.2583 70.6087 34.1455 70.4632C33.0518 69.0443 31.9775 67.6091 30.8755 66.1957C30.7568 66.0426 30.5034 65.9236 30.3062 65.9132C29.6484 65.8783 28.9873 65.9 28.2891 65.9V68.9081H29.7344V70.7704H24.6968V68.9356H26.0215V60.902L24.6924 61.0079V59.1297C24.8198 59.1201 24.9409 59.1041 25.0605 59.105C27.6392 59.1352 30.2183 59.1562 32.7959 59.2013C34.2256 59.227 35.1519 59.8845 35.6118 61.1439C36.105 62.4911 35.8008 63.879 34.7505 64.7521C34.3125 65.1157 33.7788 65.3652 33.2246 65.7053C34.0322 66.6587 34.8364 67.6402 35.6855 68.5795C35.8613 68.7731 36.2017 68.8685 36.479 68.9063C36.8013 68.9507 36.9263 69.0905 36.9272 69.3871C36.9292 69.8407 36.9282 70.2941 36.9282 70.7987ZM28.2607 63.7392C29.6333 63.7392 30.9663 63.7817 32.2944 63.7231C33.0562 63.6892 33.54 63.0835 33.5439 62.3758C33.5474 61.6389 33.1055 61.11 32.2974 61.056C31.2329 60.9862 30.1626 61.0079 29.0938 60.9919C28.8184 60.988 28.543 60.9908 28.2607 60.9908V63.7392Z" fill="#293340"/>
<path fill-rule="evenodd" clip-rule="evenodd" d="M22.6938 51.9361H24.2573V43.8156H22.6797L22.8074 42.0139C22.8582 41.9781 22.8828 41.9441 22.9063 41.945C25.2456 41.996 27.5906 41.9619 29.9207 42.1303C31.9678 42.2786 33.2869 44.5091 32.4854 46.2692C32.3013 46.6746 31.979 47.0167 31.688 47.4332C31.7769 47.5136 31.8999 47.6279 32.0254 47.7376C33.1128 48.6823 33.5418 49.8614 33.1216 51.2473C32.6943 52.6541 31.6172 53.4506 30.221 53.6037C28.5554 53.7859 26.866 53.7605 25.186 53.8161C24.5269 53.8369 23.8665 53.8209 23.2068 53.8465C22.9099 53.8577 22.7835 53.7783 22.7808 53.4609C22.7771 52.9754 22.7278 52.4896 22.6939 51.9361H22.6938ZM26.3831 51.8142C27.5813 51.7339 28.7302 51.714 29.8611 51.563C30.6914 51.4524 31.0532 50.9828 31.0806 50.296C31.1072 49.6252 30.7102 49.0384 29.981 48.8267C28.8093 48.4876 27.6011 48.5178 26.3831 48.5424V51.8142ZM26.387 46.6859C27.4622 46.634 28.4805 46.6066 29.4954 46.5272C30.1716 46.4743 30.4929 46.0662 30.5176 45.3556C30.5403 44.6698 30.2417 44.1784 29.625 44.1209C28.5561 44.0207 27.4802 44.0084 26.387 43.9574V46.6859Z" fill="#293340"/>
<path d="M75.8442 44.0019V46.635H79.1851V48.7022H75.8584V51.7094H80.3335V50.4575H82.2085V53.7926H72.0815V51.937H73.5332V43.8289H72.0747V41.9602C72.1743 41.9497 72.2935 41.9271 72.4121 41.928C75.2734 41.9564 78.1367 41.9895 80.998 42.0112C81.2549 42.013 81.3936 42.0764 81.4697 42.3381C81.6338 42.9106 81.8296 43.4755 82.0137 44.0425C82.1382 44.4298 82.0835 44.6916 81.6206 44.8068C81.1504 44.924 80.7007 45.1186 80.1934 45.2962C80.0601 44.9494 79.9482 44.6112 79.7988 44.289C79.7451 44.1729 79.6045 44.016 79.5015 44.0141C78.293 43.9953 77.085 44.0019 75.8442 44.0019Z" fill="#293340"/>
<path d="M36.5464 43.8076H35.0767V41.9633H40.2371L40.1101 43.8028H38.7344C38.7344 44.0484 38.7288 44.2478 38.7356 44.4472C38.7913 46.1129 38.8386 47.7785 38.9077 49.4432C38.9907 51.4566 39.8223 52.2285 42.2144 51.7985C43.1196 51.6351 43.7146 51.105 43.761 50.1584C43.8621 48.06 43.915 45.9598 43.9885 43.8227H42.4439V41.952H47.6565V43.7989H46.1851C46.1851 44.0806 46.1909 44.3111 46.1841 44.5416C46.1296 46.3793 46.1645 48.2253 45.9927 50.0516C45.7722 52.3852 44.4062 53.6559 42.0715 53.8996C40.54 54.0593 39.0977 53.8563 37.8784 52.78C37.1438 52.1312 36.8018 51.3091 36.7556 50.3708C36.6619 48.471 36.6128 46.569 36.5476 44.6681C36.5391 44.4037 36.5464 44.1392 36.5464 43.8075L36.5464 43.8076Z" fill="#293340"/>
<path fill-rule="evenodd" clip-rule="evenodd" d="M69.3696 60.8897L67.9194 61.0144V59.1173C68.0764 59.1107 68.2275 59.0956 68.3787 59.0984C70.6111 59.1314 72.8438 59.1532 75.0759 59.2136C75.6184 59.2287 76.1873 59.2921 76.6907 59.4782C78.1629 60.0243 78.7542 61.0163 78.7088 62.682C78.6543 64.7085 77.4248 66.0209 75.3181 66.1711C74.1304 66.256 72.9334 66.1871 71.7041 66.1871V68.9109H73.1536V70.7722H67.9231V68.9317H69.3696L69.3696 60.8897ZM71.6948 64.3136C72.9202 64.2201 74.1069 64.1266 75.2935 64.0415C76.1675 63.9783 76.4812 63.401 76.5576 62.6102C76.6179 61.9894 75.9473 61.1872 75.2839 61.1306C74.1011 61.0305 72.9114 61.004 71.6948 60.9464V64.3136Z" fill="#293340"/>
<path fill-rule="evenodd" clip-rule="evenodd" d="M79.9927 64.9882C80.0396 63.9556 80.2024 62.9815 80.6748 62.0566C81.8831 59.6918 83.6755 58.8085 86.3235 58.9275C89.9175 59.089 92.3975 62.8049 91.3423 66.6699C90.6338 69.2643 88.5918 70.9498 86.0637 71.0188C83.458 71.0897 81.115 69.4712 80.3118 66.9761C80.1087 66.3449 80.0947 65.6525 79.9927 64.9882H79.9927ZM82.2817 64.7983C82.3545 65.4805 82.365 66.052 82.4832 66.6001C82.7861 68.004 84.3213 69.084 85.8899 69.0471C87.5112 69.0093 88.9009 67.8756 89.1086 66.2864C89.2192 65.4417 89.2117 64.5565 89.0957 63.7118C88.8643 62.0188 87.7322 60.9314 86.2319 60.8057C84.553 60.664 83.1006 61.5643 82.5688 63.1544C82.3838 63.71 82.3611 64.3193 82.2817 64.7983Z" fill="#293340"/>
<path fill-rule="evenodd" clip-rule="evenodd" d="M50.0431 70.7953H46.2338C46.2338 70.269 46.2318 69.7437 46.2365 69.2185C46.2365 69.1589 46.2621 69.0928 46.2961 69.0418C46.3859 68.9039 46.5902 68.747 46.5644 68.644C46.4672 68.2501 46.3144 67.8674 46.1413 67.4999C46.1061 67.4261 45.8918 67.4139 45.7597 67.413C44.7213 67.4064 43.683 67.4195 42.6447 67.4026C42.3649 67.3979 42.2091 67.4781 42.1327 67.7521C42.069 67.978 41.9623 68.1905 41.8859 68.4135C41.8122 68.6327 41.696 68.8547 42.0448 68.9841C42.1305 69.0153 42.1881 69.2269 42.193 69.3574C42.2108 69.825 42.1996 70.2926 42.1996 70.783H38.464C38.464 70.2899 38.4394 69.7909 38.4796 69.2988C38.4914 69.1608 38.6776 68.952 38.8124 68.9265C39.2113 68.85 39.4174 68.5958 39.5439 68.2642C40.1269 66.7384 40.7069 65.2125 41.267 63.6792C41.7792 62.2781 42.2704 60.8694 42.7533 59.458C42.8429 59.1925 42.9584 59.0819 43.2482 59.097C43.7509 59.1225 44.256 59.1244 44.7582 59.0961C45.0885 59.0772 45.2492 59.185 45.3742 59.5004C46.3849 62.0561 47.413 64.6041 48.4408 67.1532C48.6107 67.5755 48.798 67.9912 48.9906 68.4031C49.1286 68.697 49.3063 68.9227 49.6918 68.9444C49.8156 68.9511 50.0128 69.1958 50.0272 69.346C50.0705 69.81 50.0431 70.2823 50.0431 70.7953L50.0431 70.7953ZM44.2802 62.0797L44.1252 62.0872L42.9611 65.4469H45.3761L44.2802 62.0797Z" fill="#293340"/>
<path d="M60.7485 41.9245H61.1794C63.9316 41.9245 66.6848 41.9311 69.437 41.916C69.7781 41.9142 69.9414 42.0133 70.0376 42.3393C70.2249 42.9714 70.4375 43.5959 70.6633 44.2147C70.7644 44.4906 70.665 44.6436 70.429 44.7315C69.9734 44.9016 69.5181 45.0792 69.0488 45.1991C68.9353 45.2275 68.7056 45.0774 68.6377 44.9517C68.4978 44.6946 68.4326 44.398 68.3164 44.0588H64.5266V46.639H67.6817V48.7063H64.522V51.9062H65.9734V53.792H60.7564V51.9374H62.2066V43.8292H60.7486L60.7485 41.9245Z" fill="#293340"/>
<path d="M50.8709 43.8009H49.4175V41.9519C49.5496 41.9435 49.6848 41.9255 49.8203 41.9255C52.5872 41.9246 55.3538 41.9302 58.1206 41.917C58.4365 41.916 58.595 41.987 58.6819 42.3139C58.8406 42.9043 59.0352 43.4863 59.2544 44.057C59.3879 44.4037 59.2791 44.604 58.9761 44.7334C58.6008 44.8931 58.2173 45.032 57.8396 45.1821C57.5269 45.3069 57.2771 45.22 57.231 44.8903C57.1108 44.0276 56.5735 43.9388 55.8391 43.9861C54.9048 44.0455 53.9631 44.0003 53.002 44.0003V46.6277H56.3494V48.7101H53.0134V51.9242H54.6562V53.7835H49.4221V51.9563H50.8708L50.8709 43.8009Z" fill="#293340"/>
<path d="M88.246 44.0096C87.5868 44.0096 86.9604 44.0067 86.3329 44.0105C85.9804 44.0125 85.7446 44.1768 85.6196 44.5169C85.5287 44.7645 85.4072 45.0016 85.2636 45.3219C84.6855 45.0923 84.1176 44.8835 83.5693 44.6322C83.477 44.5897 83.3993 44.3421 83.4335 44.2231C83.6308 43.5286 83.8471 42.839 84.102 42.1654C84.1479 42.0444 84.4028 41.9358 84.5624 41.9348C87.0776 41.9207 89.5922 41.9244 92.1083 41.9244C92.8774 41.9244 93.6474 41.9244 94.4853 41.9244C94.7367 42.7229 94.9975 43.5221 95.2284 44.3299C95.2558 44.4253 95.143 44.6369 95.0468 44.6776C94.5707 44.8769 94.0829 45.0573 93.5849 45.1963C93.4755 45.2265 93.207 45.081 93.1884 44.9828C93.0483 44.2476 92.5893 44.0294 91.8998 44.0521C91.4037 44.0682 90.9047 44.0096 90.3803 43.9831V51.9203H91.9604L91.8334 53.7871H86.7988V51.941H88.246L88.246 44.0096Z" fill="#293340"/>
<path d="M58.7439 18.748C58.7439 17.1437 58.7278 15.5395 58.7561 13.9362C58.7619 13.6007 58.6325 13.0066 59.0691 12.9933C59.5666 12.9782 59.4602 13.5801 59.4875 13.941C59.5451 14.7081 59.5798 15.48 59.5764 16.25C59.5642 18.6242 59.529 20.9994 59.5027 23.3736C59.5027 23.4048 59.5027 23.437 59.4978 23.4681C59.4475 23.7998 59.4997 24.2703 59.032 24.2609C58.551 24.2513 58.7449 23.7705 58.7409 23.5116C58.7136 21.9243 58.7268 20.3351 58.7268 18.748H58.7439Z" fill="#293340"/>
<path fill-rule="evenodd" clip-rule="evenodd" d="M58.6652 76.247C59.4245 76.2886 60.1481 76.2849 60.8585 76.3801C61.6901 76.4918 62.0368 76.9848 62.0143 77.8247C61.9962 78.4804 61.8068 79.0257 61.1749 79.3402C61.0514 79.4016 60.9455 79.4999 60.7877 79.6132L62.0285 81.3347C61.4962 81.4801 61.1325 81.2704 60.841 80.9113C60.3776 80.3407 59.9318 79.7558 59.3937 79.0701C59.3937 79.6605 59.3995 80.1366 59.3903 80.6129C59.3868 80.7989 59.382 80.9992 59.3126 81.1655C59.2731 81.2628 59.108 81.3535 58.9943 81.3592C58.9117 81.363 58.7887 81.2383 58.7443 81.1429C58.6857 81.02 58.6676 80.8679 58.6676 80.7291C58.6627 79.2683 58.6652 77.8077 58.6652 76.2469L58.6652 76.247ZM59.4186 79.0417C59.9669 78.9047 60.4762 78.8573 60.8981 78.6401C61.1295 78.5211 61.3102 78.1243 61.3385 77.8361C61.3737 77.4713 61.0856 77.2106 60.7169 77.1115C60.2985 76.9999 59.8751 76.9064 59.4186 76.7969V79.0417Z" fill="#293340"/>
<path d="M61.9837 12.911C62.0289 13.5724 62.1038 14.1941 62.1082 14.8157C62.128 17.755 62.1341 20.6942 62.1236 23.6325C62.1236 23.8545 61.9695 24.2542 61.8589 24.2645C61.4725 24.2985 61.4063 23.9376 61.3909 23.6392C61.344 22.7131 61.292 21.7855 61.2967 20.8595C61.3089 18.4862 61.345 16.1129 61.3855 13.7406C61.3921 13.3967 61.3621 12.9829 61.9837 12.911L61.9837 12.911Z" fill="#293340"/>
<path d="M56.7492 18.5297C56.694 20.2577 56.6393 21.9857 56.5827 23.7137C56.5788 23.8082 56.5905 23.9187 56.5451 23.9915C56.4777 24.0972 56.3673 24.1757 56.275 24.2664C56.1872 24.17 56.046 24.0859 56.0211 23.9763C55.9611 23.7014 55.9288 23.4151 55.9279 23.1336C55.9137 20.0054 55.9074 16.8772 55.9025 13.749C55.9015 13.5931 55.9044 13.4269 55.9562 13.2832C55.9967 13.1699 56.1383 12.9895 56.1945 13.0026C56.3371 13.0386 56.5099 13.1388 56.5744 13.2634C56.6554 13.4212 56.6647 13.6281 56.6657 13.8134C56.6725 15.3854 56.6696 16.9575 56.6696 18.5297H56.7492Z" fill="#293340"/>
<path fill-rule="evenodd" clip-rule="evenodd" d="M53.3466 81.3514C52.5804 81.4042 52.4745 81.3315 52.2311 80.6341C51.9615 79.8679 51.9615 79.8679 51.1471 79.8688C51.0675 79.8688 50.9884 79.8784 50.911 79.867C50.2194 79.7735 49.7745 80.021 49.5741 80.7277C49.5079 80.9593 49.287 81.1623 49.0961 81.3324C49.0233 81.3967 48.8146 81.3674 48.7079 81.3078C48.6539 81.2767 48.653 81.0726 48.6906 80.9696C48.9496 80.262 49.2206 79.5589 49.4957 78.858C49.7716 78.157 50.038 77.4502 50.3476 76.7652C50.4308 76.582 50.653 76.3581 50.8241 76.3476C51.0036 76.3354 51.2872 76.5131 51.371 76.6831C51.7528 77.456 52.09 78.2515 52.4235 79.0461C52.7392 79.7972 53.0312 80.5586 53.3466 81.3514L53.3466 81.3514ZM51.6508 79.1736L51.0272 77.3218L50.9183 77.3435L50.2013 79.096L51.6508 79.1736Z" fill="#293340"/>
<path fill-rule="evenodd" clip-rule="evenodd" d="M41.4576 79.301C41.4576 79.8453 41.4879 80.3469 41.4429 80.841C41.4256 81.0273 41.2628 81.3135 41.1153 81.3513C40.7767 81.4372 40.7596 81.0962 40.7576 80.8817C40.7435 79.3747 40.7501 77.8669 40.7501 76.224C41.5491 76.2957 42.3721 76.3183 43.1754 76.4601C43.7344 76.5593 43.8812 77.0667 43.9134 77.5873C43.9529 78.2363 43.7628 78.7842 43.1553 79.0809C42.8824 79.2141 42.5567 79.2529 42.2496 79.2944C42.0064 79.3276 41.7562 79.301 41.4576 79.301L41.4576 79.301ZM41.4664 77.7676C41.4615 78.4602 41.5784 78.6558 42.0047 78.6625C42.7447 78.6737 43.129 78.3412 43.1453 77.6761C43.1573 77.215 42.6541 76.855 41.9906 76.8483C41.6041 76.8456 41.4718 77.0781 41.4664 77.7676Z" fill="#293340"/>
<path d="M75.7949 76.106C76.3049 76.1003 77.0308 76.5784 77.1023 77.0168C77.1301 77.1849 77.0149 77.3777 76.9649 77.559C76.8032 77.492 76.6282 77.4447 76.4839 77.3513C76.3845 77.2878 76.3389 77.1471 76.2503 77.0612C75.9641 76.7853 75.5674 76.8079 75.2896 77.1046C75.0032 77.4108 75.0242 77.7755 75.364 78.0418C75.4966 78.1457 75.6631 78.21 75.8176 78.2828C76.002 78.3697 76.1978 78.433 76.3772 78.5275C77.0894 78.9006 77.4153 79.4656 77.3037 80.1119C77.1697 80.8904 76.6502 81.4138 75.8821 81.546C75.3528 81.6376 74.2693 80.8621 74.209 80.331C74.1973 80.2262 74.2576 80.041 74.3298 80.0146C74.4573 79.9682 74.6511 79.9673 74.7578 80.0372C74.8909 80.1241 74.9363 80.3566 75.0713 80.4303C75.3406 80.5766 75.6448 80.742 75.9348 80.7411C76.2891 80.7401 76.509 80.4444 76.565 80.0826C76.6199 79.7217 76.4944 79.4212 76.1638 79.253C75.8716 79.1047 75.5542 79.0074 75.2564 78.8695C74.6035 78.568 74.2664 77.8917 74.4107 77.199C74.5271 76.6379 75.1922 76.1136 75.7949 76.106H75.7949Z" fill="#293340"/>
<path d="M68.6279 76.307V81.3455H67.7314V76.307H68.6279Z" fill="#293340"/>
</g>
</g>
<defs>
<clipPath id="clip0_1087_90774">
<rect width="93.212" height="101.036" fill="white" transform="translate(12.3955 8)"/>
</clipPath>
<clipPath id="clip1_1087_90774">
<rect width="93.212" height="101.036" fill="white" transform="translate(12.3955 8)"/>
</clipPath>
</defs>
</svg>
