<svg width="125" height="117" viewBox="0 0 125 117" fill="none" xmlns="http://www.w3.org/2000/svg">
<g clip-path="url(#clip0_1087_90825)">
<g clip-path="url(#clip1_1087_90825)">
<path fill-rule="evenodd" clip-rule="evenodd" d="M12.5981 87.9356C14.4829 86.6621 16.304 85.2818 18.2629 84.1348C24.1973 80.6611 30.5164 78.0073 36.9819 75.7054C43.1992 73.4922 49.5835 71.8458 56.0356 70.4943C61.9092 69.2639 67.8367 68.2926 73.7129 67.0675C84.3618 64.8464 94.8655 62.0896 104.687 57.2812C108.996 55.1709 113.103 52.6696 116.6 49.3105C117.029 48.8988 117.373 48.3696 117.653 47.8404C117.951 47.2786 117.953 46.6581 117.505 46.1341C117.082 45.6401 116.544 45.6401 115.955 45.7952C114.431 46.1954 113.163 47.0634 111.9 47.9498C111.137 48.4856 110.382 49.0382 109.576 49.5036C109.139 49.7564 108.614 49.931 108.112 49.9859C107.086 50.0966 106.424 49.3849 106.654 48.3761C106.823 47.6265 107.133 46.8927 107.475 46.198C108.296 44.5243 109.172 42.8768 110.026 41.2188C110.065 41.142 110.122 41.0599 110.125 40.9791C110.134 40.6531 110.125 40.3259 110.124 39.9988C109.833 40.1005 109.509 40.1487 109.259 40.3103C107.866 41.2109 106.777 42.4205 105.972 43.8582C104.826 45.9009 103.719 47.9655 102.632 50.0405C102.367 50.5463 102.038 50.8292 101.475 50.9203C100.822 51.0259 100.182 51.2032 99.4065 51.3792C100.294 49.7004 101.126 48.1597 101.929 46.6045C102.615 45.2764 103.298 43.9443 103.918 42.5835C104.075 42.2381 103.981 41.7779 104.002 41.3713C103.649 41.5422 103.198 41.6255 102.959 41.8979C102.076 42.9042 101.223 43.943 100.432 45.0235C99.2278 46.6685 98.1653 48.4229 96.887 50.0053C96.0813 51.0037 95.0476 51.8471 94.0139 52.6239C92.9033 53.4596 91.5816 53.7527 90.1868 53.5168C89.1067 53.3344 88.3181 52.7648 87.9983 51.576C87.4368 52.2095 86.9771 52.7803 86.4631 53.2979C85.5364 54.2311 84.5234 55.034 83.1692 55.2712C81.5723 55.5501 80.5522 54.5127 80.9863 52.9419C81.2439 52.0088 81.6653 51.1171 82.0522 50.2256C82.519 49.1528 83.0598 48.1114 83.5093 47.0309C83.7978 46.3349 83.6828 46.211 82.9282 46.1432C82.6716 46.1197 82.4121 46.1159 82.1162 46.1028C81.5254 47.7217 80.3433 48.7305 78.8105 49.4175C78.5725 49.5243 78.4001 49.9337 78.3284 50.2334C77.6755 52.9889 76.2441 55.2179 73.9058 56.8327C72.9839 57.4688 71.9714 57.9134 70.8254 57.9408C69.418 57.9746 68.4263 57.319 67.8723 56.0207C67.8318 55.9256 67.79 55.8316 67.7197 55.6714C67.3115 56.1341 66.9937 56.6086 66.5701 56.954C65.3318 57.9654 64.0688 58.9496 62.7769 59.892C62.4053 60.1644 61.9155 60.3038 61.458 60.4211C60.2393 60.734 59.7217 60.3808 59.4805 59.0799C59.0083 59.5179 58.6047 60.0002 58.1025 60.3338C57.353 60.8331 56.5752 61.3479 55.7332 61.6373C54.4907 62.0649 53.3896 61.387 52.9895 60.1383C52.9397 59.9806 52.8826 59.8254 52.8328 59.6808C51.8789 60.6153 50.9907 61.6008 49.9773 62.4336C49.342 62.9551 48.5559 63.3747 47.7703 63.6133C46.459 64.0121 45.6274 63.1322 46.094 61.8446C46.5061 60.7092 47.0938 59.6365 47.626 58.5481C48.177 57.4181 48.7585 56.3034 49.3186 55.1787C49.4243 54.9662 49.5405 54.7395 49.5637 54.5113C49.5847 54.2989 49.488 54.0746 49.4443 53.8557C49.2471 53.9 49.0217 53.8988 48.8599 53.999C47.3713 54.9206 46.1983 56.1681 45.3428 57.6826C44.1365 59.815 42.9851 61.9801 41.8345 64.1438C41.6404 64.5101 41.407 64.6873 41.0029 64.7565C40.2874 64.8803 39.582 65.0666 38.7363 65.2582C39.4688 63.878 40.148 62.628 40.8008 61.3636C41.635 59.7446 42.4729 58.1258 43.2527 56.4809C43.4168 56.1353 43.333 55.6727 43.3638 55.2634C43.0093 55.4251 42.5488 55.4954 42.3179 55.7627C41.3586 56.8758 40.4463 58.032 39.5559 59.2025C38.1653 61.0326 36.8709 62.9381 35.4075 64.7056C34.7322 65.5202 33.7556 66.0872 32.9058 66.7533C32.7576 66.8694 32.5537 66.9214 32.3699 66.9854C31.0444 67.4428 30.4084 67.0765 30.1672 65.7992C29.3787 66.3948 28.5864 67.0557 27.731 67.6201C26.8801 68.1805 25.8865 68.2445 24.9014 68.1115C23.7073 67.9486 23.0127 67.2356 22.8538 65.9555L19.4228 67.9447C19.1438 67.0987 19.2014 66.9801 19.9143 66.7181C21.5747 66.1094 22.7739 64.9897 23.6589 63.4621C24.9885 61.168 26.7129 59.1947 28.7673 57.5198C29.8779 56.6164 31.2141 56.3127 32.6047 56.3322C33.0554 56.3388 33.5024 56.6307 34.0623 56.8327C33.9265 56.9136 33.9551 56.9057 33.96 56.8915C34.2918 55.7444 35.2141 55.6505 36.188 55.6166C36.7627 55.5959 37.3364 55.528 38.031 55.4719C37.207 57.0348 36.437 58.4855 35.6785 59.9415C34.9158 61.404 34.1541 62.8665 33.418 64.3406C33.3179 64.5439 33.3608 64.819 33.3374 65.0614C33.573 64.9924 33.8953 64.9989 34.032 64.8438C35.0552 63.672 36.0967 62.5093 37.0249 61.2632C38.2537 59.613 39.3682 57.8768 40.5689 56.2045C40.9077 55.734 41.3599 55.339 41.7927 54.948C42.0794 54.6886 42.4077 54.4592 42.751 54.2832C44.3096 53.4855 45.3477 53.8545 46.0772 55.5866C46.5388 55.0693 46.8901 54.5127 47.3857 54.1594C48.1509 53.6133 48.9668 53.0607 49.8481 52.774C51.1655 52.3464 52.1992 53.3292 51.8723 54.6769C51.6296 55.6727 51.1736 56.6268 50.7292 57.5602C50.1323 58.8127 49.4468 60.021 48.8245 61.2618C48.7309 61.447 48.7764 61.7038 48.7585 61.9266C48.9971 61.8811 49.3215 61.9188 49.4597 61.7754C50.4841 60.7196 51.5022 59.6534 52.456 58.5337C52.8694 58.0489 53.1614 57.4481 53.4465 56.8692C54.8047 54.1281 56.7786 51.9527 59.4416 50.4498C60.0828 50.0874 60.8503 49.9089 61.5815 49.755C62.2153 49.6221 62.832 49.7786 63.2893 50.429C63.7834 49.467 64.2524 48.5703 64.7075 47.667C66.6653 43.7696 68.624 39.8724 70.5622 35.9659C70.7461 35.597 70.9639 35.4029 71.3628 35.3259C72.3364 35.1395 73.3047 34.9192 74.4455 34.6755C70.3996 42.5939 66.4241 50.3716 62.4473 58.1558C62.9634 58.5378 63.3843 58.3722 63.6804 58.1193C64.697 57.2499 65.707 56.3648 66.644 55.4106C67.279 54.7655 67.6633 53.9717 67.9177 53.0502C68.8262 49.755 72.2724 47.0804 75.7007 46.8654C77.2217 46.7702 77.739 47.0687 78.3652 48.3981C79.5798 48.2183 80.6865 47.1378 80.9758 45.8473C80.0293 45.1345 79.7949 44.3875 80.2495 43.5402C80.5444 42.9902 81.0639 42.7451 81.5989 42.9016C82.3403 43.1192 82.5554 43.7762 82.3547 45.3637C83.1474 45.3259 83.9204 45.2882 84.6931 45.2504C84.9956 45.236 85.3032 45.1774 85.5979 45.2139C86.2624 45.2974 86.5938 45.6571 86.5022 46.3205C86.4202 46.9123 86.248 47.5106 86.0054 48.0579C85.3562 49.5257 84.6472 50.966 83.968 52.4205C83.8303 52.7151 83.7038 53.0176 83.6086 53.3266C83.564 53.4738 83.541 53.7098 83.623 53.7905C83.7119 53.8779 83.9607 53.8949 84.0906 53.8361C84.4219 53.685 84.7817 53.5299 85.0293 53.2783C85.8938 52.3985 86.719 51.4796 87.5478 50.5659C87.6572 50.4433 87.7524 50.2661 87.7676 50.107C88.0151 47.4909 89.4509 45.6062 91.4785 44.1007C92.7981 43.1206 94.2278 42.3594 95.8909 42.1417C96.1257 42.1116 96.3669 42.0961 96.6028 42.1104C97.7329 42.1821 98.2812 42.9016 98.0522 44.0121C97.7004 45.7209 96.6914 47.0113 95.1899 47.7673C94.1311 48.3005 92.9033 48.522 91.7319 48.7932C91.363 48.8791 91.1309 48.9769 91.0474 49.3223C90.8765 50.0353 90.6716 50.7483 90.5857 51.4743C90.4922 52.2694 90.8869 52.6331 91.6821 52.4741C92.1982 52.3698 92.7195 52.1443 93.1682 51.8615C94.9224 50.7549 96.269 49.2169 97.4797 47.5653C98.3271 46.4118 99.0425 45.1617 99.9106 44.0251C100.724 42.9616 101.6 41.9278 102.57 41.0076C103.059 40.5449 103.785 40.2346 104.456 40.0823C105.635 39.8137 106.354 40.3795 106.651 41.7507C107.026 41.327 107.29 40.9229 107.651 40.6439C108.399 40.064 109.166 39.4904 109.991 39.0329C110.628 38.6785 111.401 38.5611 112.008 39.1164C112.622 39.6781 112.751 40.4563 112.466 41.2188C112.116 42.1482 111.694 43.0528 111.255 43.943C110.678 45.1097 110.046 46.2488 109.461 47.4102C109.375 47.5796 109.413 47.8104 109.394 48.0125C109.612 47.9785 109.869 48.0072 110.043 47.9003C111.059 47.276 112.011 46.5251 113.073 46.0011C114.13 45.4798 115.265 44.9807 116.415 44.8203C118.378 44.5438 119.403 46.0207 118.692 47.8874C118.141 49.3341 117.107 50.4186 115.924 51.3596C112.052 54.4358 107.863 57.023 103.44 59.2194C95.9485 62.9408 88.0571 65.5946 79.9473 67.5576C75.0662 68.7385 70.0842 69.5023 65.1951 70.6507C60.217 71.8199 55.2873 73.1975 50.3552 74.5467C44.7493 76.0796 39.2051 77.8156 33.8037 79.9781C28.5745 82.0714 23.573 84.6158 18.7844 87.5785C18.6208 87.6789 18.4831 87.8158 18.3332 87.9356L12.5981 87.9356ZM76.165 47.5679C75.9246 47.6852 75.699 47.7543 75.5244 47.8886C73.1238 49.7289 71.1868 51.9318 70.2354 54.866C70.0383 55.4746 69.8001 56.1994 70.3784 56.696C70.9666 57.199 71.6704 56.9044 72.2805 56.6204C73.6099 56.0051 74.6191 54.9936 75.491 53.8427C76.3809 52.6682 77.0928 51.4014 77.3687 49.9258C75.9727 49.5504 75.6682 48.9574 76.1651 47.5679L76.165 47.5679ZM25.7539 65.764C25.7551 67.0101 26.3584 67.4637 27.1338 66.9214C28.2239 66.1616 29.4087 65.3613 30.1311 64.2924C31.3379 62.5068 32.2317 60.5059 33.2029 58.569C33.3462 58.2836 33.3293 57.7166 33.1394 57.5276C32.9604 57.3489 32.4507 57.4637 32.0962 57.5145C31.9206 57.5407 31.759 57.7022 31.6023 57.8169C29.26 59.5257 27.4546 61.6843 26.2239 64.3068C25.9714 64.8464 25.8525 65.4499 25.7539 65.764H25.7539ZM62.6572 51.6307C62.6702 50.7704 62.2593 50.4903 61.6089 50.7874C61.3757 50.8943 61.1555 51.0404 60.947 51.1928C59.3816 52.3398 58.2187 53.8427 57.2244 55.4825C56.4267 56.7989 55.6833 58.148 55.4136 59.6938C55.2915 60.3951 55.5847 60.6337 56.2571 60.3951C56.4587 60.3236 56.6584 60.223 56.8337 60.0992C58.3242 59.0421 59.7544 57.9251 60.5688 56.2148C61.21 54.8672 61.8579 53.5233 62.4912 52.1717C62.5903 51.9619 62.6294 51.7233 62.6572 51.6307ZM91.6509 47.9107C92.8511 47.8246 93.9126 47.5444 94.8498 46.9266C95.9026 46.2319 96.7576 45.3468 97.124 44.0969C97.3379 43.3669 96.9336 42.9003 96.2036 43.0905C95.758 43.2066 95.3188 43.4503 94.9487 43.7332C93.6723 44.7055 92.6948 45.9451 91.8972 47.3294C91.8047 47.4909 91.75 47.6735 91.6509 47.9107Z" fill="#293340"/>
<path fill-rule="evenodd" clip-rule="evenodd" d="M0.99707 53.6549C1.26392 52.7489 1.46875 51.8196 1.8103 50.9424C2.96118 47.9875 5.03613 45.7339 7.39575 43.6965C8.79565 42.4882 10.3062 41.4716 12.1309 41.0792C14.2505 40.6217 16.2815 40.902 17.7061 42.6722C18.8828 44.1345 19.1555 45.9411 18.7734 47.7933C18.2444 50.3677 17.0972 52.7099 15.9649 55.0535C14.3799 58.333 12.634 61.5433 11.5315 65.0353C11.2839 65.8161 11.1079 66.623 10.9566 67.4297C10.8901 67.7804 10.9216 68.17 10.9971 68.5233C11.1079 69.046 11.457 69.4071 12.0215 69.2924C12.6304 69.1686 13.2612 69.0225 13.8035 68.7357C16.0676 67.5418 17.8611 65.7745 19.4966 63.8439C23.3184 59.3379 25.8379 54.1919 27.0501 48.3447C25.6699 47.7998 24.6231 46.8404 23.8057 45.6413C23.0198 44.4877 22.5196 43.2221 22.7449 41.7857C22.9443 40.5109 24.0667 39.8058 25.2971 40.1902C27.2407 40.7991 28.094 42.2979 28.3474 44.1801C28.4644 45.0534 28.4124 45.9541 28.3704 46.8392C28.3501 47.2681 28.471 47.4479 28.8765 47.5756C31.9304 48.544 34.7305 46.5486 34.7666 43.3591C34.7708 42.9511 34.7666 42.5444 34.7666 42.1025H35.6699C35.7732 44.1998 35.6204 46.1458 33.8037 47.5821C32.0542 48.9651 30.1226 49.0511 28.0447 48.4932C27.7241 49.7459 27.4321 50.9424 27.1101 52.1299C26.1104 55.8199 24.2454 59.0955 22.2146 62.289C20.8631 64.4136 19.502 66.5383 17.6016 68.2393C16.2293 69.4683 14.7285 70.4864 12.908 70.9294C9.90066 71.662 7.8257 70.141 7.67849 67.0504C7.58059 65.0171 8.09792 63.071 8.93484 61.2527C10.2761 58.3395 11.7986 55.5071 13.1521 52.5991C13.9822 50.816 14.7063 48.9756 15.344 47.1142C15.6018 46.3634 15.6089 45.4823 15.5437 44.6767C15.3855 42.698 14.0547 41.8548 12.1714 42.4869C10.3963 43.0827 8.84793 44.0837 7.47122 45.335C5.1409 47.453 3.20999 49.8685 2.39676 52.9759C2.14383 53.9391 2.08695 54.9922 2.1492 55.9894C2.30423 58.4529 4.845 58.8348 6.37869 57.8546C7.49099 57.1455 8.16897 56.0937 8.63284 54.901C8.97659 54.0147 9.30252 53.1101 9.5137 52.1846C9.7222 51.2657 9.77566 50.3116 9.90066 49.3393C10.7869 49.1267 10.864 49.1816 10.8577 50.1395C10.8391 53.0475 9.89016 55.6231 8.06936 57.8807C7.23513 58.9131 6.19241 59.5269 4.82375 59.523C3.12063 59.5165 1.77541 58.5481 1.25637 56.9239C1.17165 56.6593 1.08352 56.396 0.99709 56.1314L0.99707 53.6549ZM27.1653 46.9669C27.7446 45.4563 27.1987 43.084 26.1836 42.4647C25.7937 43.3069 25.0701 43.531 24.1396 43.4228C24.5972 45.1486 25.5288 46.3256 27.1653 46.9669H27.1653Z" fill="#293340"/>
<path fill-rule="evenodd" clip-rule="evenodd" d="M124.955 35.2763C124.552 36.555 123.902 37.6368 122.65 38.2665C120.313 39.4434 117.542 38.454 116.563 36.0831C115.566 33.6665 116.82 31.0178 119.345 30.2033C119.439 30.1732 119.522 30.1107 119.611 30.0625H121.566C122.136 30.348 122.739 30.5851 123.273 30.928C124.188 31.5145 124.578 32.4869 124.955 33.4514L124.955 35.2763ZM124.208 34.463C124.248 32.4647 122.697 30.8524 120.69 30.8068C118.689 30.7612 117.035 32.324 116.996 34.2935C116.957 36.3099 118.546 37.973 120.552 38.0135C122.513 38.0527 124.168 36.4468 124.208 34.463V34.463Z" fill="#293340"/>
<path fill-rule="evenodd" clip-rule="evenodd" d="M63.0964 85.0152C61.8188 85.1378 61.8188 85.1378 61.7017 84.0182C61.5283 82.3589 61.5283 82.3589 59.8611 82.3589C59.4751 82.3575 59.0884 82.3589 58.6269 82.3589V85.0206H57.5801V81.8714V78.7105C58.8872 78.7105 60.1399 78.6584 61.385 78.7314C62.0481 78.7704 62.5632 79.2137 62.7248 79.8928C62.9045 80.6527 62.8186 81.3682 62.0295 81.8675C63.1448 82.6703 62.2854 84.0495 63.0964 85.0152H63.0964ZM58.6255 81.6159C59.5066 81.5547 60.3225 81.5403 61.1243 81.4256C61.6335 81.3539 61.759 80.9159 61.7534 80.4376C61.7485 79.9632 61.562 79.6112 61.0781 79.5642C60.2744 79.4874 59.4631 79.4717 58.6255 79.4275V81.6159Z" fill="#293340"/>
<path d="M73.6585 80.4656C73.3325 80.4656 73.0781 80.4656 72.8225 80.4669C72.2681 79.3132 71.6604 78.9731 70.5378 79.2221C70.0452 79.3302 69.6077 79.5779 69.5759 80.1371C69.5447 80.6962 69.9739 80.9126 70.4439 81.0286C71.1792 81.2097 71.9209 81.3624 72.6509 81.5618C73.2752 81.7325 73.7471 82.0975 73.8486 82.7843C73.958 83.5208 73.7783 84.1607 73.1475 84.6236C72.2285 85.2961 70.3127 85.3456 69.3621 84.72C68.7153 84.2924 68.4331 83.6758 68.4028 82.8834H69.2688C69.8433 84.2363 70.8093 84.6848 72.0813 84.1959C72.5479 84.0175 72.8816 83.7215 72.8792 83.2015C72.8774 82.6722 72.467 82.4689 72.0327 82.3503C71.3237 82.1561 70.5994 82.0167 69.8953 81.808C68.9995 81.5434 68.6711 81.1616 68.6296 80.4472C68.5811 79.5974 68.9297 78.9926 69.7503 78.6589C70.6914 78.2757 71.6604 78.2666 72.5938 78.6862C73.3079 79.0082 73.6633 79.5922 73.6585 80.4656L73.6585 80.4656Z" fill="#293340"/>
<path fill-rule="evenodd" clip-rule="evenodd" d="M56.1094 84.9882C55.303 85.2711 54.9509 84.9452 54.719 84.2506C54.3667 83.1881 54.3276 83.2012 53.1887 83.2012C51.6362 83.2012 51.6038 83.1881 51.0586 84.6273C50.7966 85.3181 50.3325 85.0014 49.832 85.0443C50.5696 83.2364 51.2776 81.4988 51.9868 79.7614C52.0598 79.5815 52.165 79.4095 52.2073 79.2232C52.3035 78.7864 52.5498 78.6678 52.992 78.6626C53.4404 78.6575 53.6279 78.8151 53.7869 79.2166C54.4949 81.0062 55.2363 82.7828 55.9651 84.566C56.0212 84.7028 56.0613 84.8461 56.1094 84.9882H56.1094ZM52.988 79.7093L51.9585 82.3293H53.9912L52.988 79.7093Z" fill="#293340"/>
<path fill-rule="evenodd" clip-rule="evenodd" d="M45.0415 82.319V84.931H44.0522V78.6577C45.2935 78.6577 46.5447 78.5795 47.7791 78.6837C48.6392 78.7566 49.0994 79.505 49.0898 80.4291C49.0798 81.3271 48.5754 82.0244 47.7478 82.1847C47.2629 82.2786 46.7585 82.2891 46.2617 82.3151C45.8787 82.3346 45.4929 82.319 45.0415 82.319H45.0415ZM45.0757 81.4248C45.824 81.4248 46.5134 81.4574 47.1987 81.4144C47.7424 81.3805 48.0461 81.0534 48.0618 80.4773C48.0774 79.9194 47.8455 79.5283 47.2891 79.4631C46.5693 79.3784 45.8396 79.3784 45.0757 79.3394V81.4248Z" fill="#293340"/>
<path d="M66.1782 85.0695H65.2959V78.7295H66.1782V85.0695Z" fill="#293340"/>
<path fill-rule="evenodd" clip-rule="evenodd" d="M118.91 32.0021C119.781 32.0021 120.581 31.9813 121.381 32.0086C122.181 32.0373 122.591 32.4074 122.682 33.1036C122.776 33.8205 122.448 34.3417 121.735 34.6012C121.655 34.6299 121.574 34.652 121.451 34.6897L122.57 36.7819C122.007 36.9826 121.667 36.8562 121.443 36.3388C121.263 35.9242 120.977 35.5539 120.799 35.1382C120.571 34.6038 120.2 34.5294 119.658 34.699V36.8131H118.91L118.91 32.0021ZM119.732 33.8347C120.302 33.8347 120.882 33.8699 121.453 33.8139C121.623 33.7956 121.901 33.5077 121.888 33.364C121.873 33.1634 121.666 32.8976 121.474 32.8141C121.209 32.7008 120.883 32.7099 120.582 32.7035C119.543 32.6838 119.496 32.7515 119.732 33.8347Z" fill="#293340"/>
</g>
</g>
<defs>
<clipPath id="clip0_1087_90825">
<rect width="123.958" height="57.8731" fill="white" transform="translate(0.99707 30.0625)"/>
</clipPath>
<clipPath id="clip1_1087_90825">
<rect width="123.958" height="57.8731" fill="white" transform="translate(0.99707 30.0625)"/>
</clipPath>
</defs>
</svg>
