<?xml version="1.0" encoding="UTF-8"?><svg id="Layer_1" xmlns="http://www.w3.org/2000/svg" viewBox="0 0 117 117"><defs><style>.cls-1{fill:#231f20;}</style></defs><path class="cls-1" d="M12.74,45.76c-7.03,0-12.74,5.7-12.74,12.74s5.7,12.74,12.74,12.74,12.74-5.71,12.74-12.74-5.7-12.74-12.74-12.74Zm0,24.04c-6.24,0-11.3-5.06-11.3-11.3s5.06-11.3,11.3-11.3,11.3,5.07,11.3,11.3-5.06,11.3-11.3,11.3Z"/><polygon class="cls-1" points="97.54 55.91 93.29 55.91 93.29 47.41 89.41 47.41 89.41 69.58 93.29 69.58 93.29 59.85 97.54 59.85 97.54 69.58 101.51 69.58 101.51 47.41 97.54 47.41 97.54 55.91"/><polygon class="cls-1" points="37.77 47.41 34.84 56.05 32.18 47.41 28.31 47.41 32.62 61 32.62 69.58 36.94 69.58 36.94 60.57 41.4 47.41 37.77 47.41"/><polygon class="cls-1" points="63.9 57.96 61.74 47.41 55.68 47.41 55.68 69.58 59.16 69.58 59.16 52.87 62.13 67.4 65.37 67.4 68 52.64 68 69.58 72.08 69.58 72.08 47.41 65.76 47.41 63.9 57.96"/><path class="cls-1" d="M113.34,47.41h-6l-4.05,22.17h3.59l.86-5.16h4.47l.83,5.16h3.96l-3.66-22.17Zm-4.99,13.32l1.66-9.91,1.6,9.91h-3.26Z"/><path class="cls-1" d="M83.91,47.41h-6l-4.05,22.17h3.59l.86-5.16h4.48l.83,5.16h3.96l-3.66-22.17Zm-4.99,13.32l1.65-9.91,1.6,9.91h-3.25Z"/><path class="cls-1" d="M50.18,47.41h-6l-4.06,22.17h3.6l.86-5.16h4.47l.83,5.16h3.96l-3.66-22.17Zm-4.99,13.32l1.65-9.91,1.6,9.91h-3.25Z"/><path class="cls-1" d="M22,63.63l-1.85-2.16s-.05-.05-.08-.07c-.1-.05-.21-.05-.3-.01-.28,.13-.62,.13-.92-.04-.26-.15-.42-.4-.48-.68-.12-.69-.55-1.33-1.2-1.7l-.83-.48,4.71-2.72-.58-1.01-5.29,3.05-.64-.37v-.73l5.29-3.05-.58-1.01-4.71,2.71v-.95c0-.76-.34-1.44-.87-1.9-.21-.18-.35-.45-.35-.75,0-.33,.17-.63,.42-.81,.09-.05,.14-.15,.14-.26,0-.04,0-.07-.02-.1l-.94-2.68c-.03-.08-.1-.13-.19-.13s-.16,.05-.19,.13l-.94,2.68s-.01,.07-.01,.1c0,.11,.05,.21,.13,.26h0c.26,.18,.42,.48,.42,.81,0,.3-.13,.57-.34,.75-.53,.45-.87,1.14-.87,1.9v.95l-4.71-2.71-.58,1.01,5.29,3.05v.74l-.64,.37-5.29-3.05-.58,1.01,4.71,2.72-.83,.48c-.66,.38-1.08,1.01-1.21,1.7-.05,.28-.22,.53-.48,.68-.3,.17-.64,.17-.92,.04-.09-.04-.2-.04-.3,.01-.02,.02-.06,.04-.08,.07l-1.85,2.16c-.05,.06-.06,.15-.02,.23,.04,.07,.13,.11,.21,.09l2.79-.52s.07-.02,.09-.04c.1-.06,.16-.15,.16-.25,.03-.31,.2-.6,.49-.78,.26-.15,.56-.17,.82-.07,.66,.23,1.42,.19,2.08-.2l.83-.48v5.44h1.16v-6.11l.64-.37,.64,.37v6.11h1.17v-5.44l.83,.48c.66,.38,1.41,.43,2.08,.2,.26-.09,.56-.07,.82,.07,.29,.17,.46,.46,.49,.78,0,.11,.06,.2,.16,.25,.03,.01,.07,.03,.1,.04l2.8,.52c.08,.02,.17-.02,.21-.09,.04-.08,.04-.17-.02-.23Zm-11.06-3.36l-1.56,.9c-.3,.18-.69,.07-.87-.23-.17-.31-.07-.69,.23-.87l1.56-.9,.64,.37v.73Zm1.16-6.01c0-.35,.29-.64,.64-.64s.64,.28,.64,.64v1.79l-.64,.37-.64-.37v-1.79Zm1.37,4.66l-.73,.42-.73-.42v-.84l.73-.43,.73,.43v.84Zm3.49,2.02c-.18,.3-.57,.41-.87,.23l-1.55-.9v-.73l.64-.37,1.55,.9c.31,.17,.41,.56,.23,.87Z"/></svg>