<?xml version="1.0" encoding="UTF-8"?><svg id="Layer_1" xmlns="http://www.w3.org/2000/svg" viewBox="0 0 117 117"><defs><style>.cls-1,.cls-2,.cls-3{fill:#231f20;}.cls-2{font-family:Helvetica, Helvetica;font-size:5.45px;}.cls-3{fill-rule:evenodd;}</style></defs><path class="cls-1" d="M92.53,59.68c.61-.02,2.1,.17,5.33,.29,3.38,.13,4.05-2.49,3.92-4.12-3.45,.74-4.27,.93-7.24,.93-3.12,0-6.98,.87-7.05,3.62-.07,2.73,3.5,3.34,5.36,3.87,.51,.12,.71,.54,.37,.81-.79,.63-2.58,1.47-2.8,2.96-.3,2.12,1.62,3.77,4.06,3.72,3.25-.07,6.84-1.45,10.28-5.58,.97-1.17,2.07-3.14,2.74-4.01,.16-.31,.63-.46,.83-.44,.62,.14,1.49,.6,1.37,1.27-.18,1.02-2.96,4.21-1.11,6.13,1.14,1.18,4.01,2.04,6.3,.37,2.14-1.56,1.39-2.98,.54-3.08-.61-.07-2.3,2.06-3.67,.54-1.14-1.26,1.57-3.87,2.1-4.8,.78-1.34-2.25-2.35-3.52-4.01-.82-1.09,1.31-4.45-1.36-5.34-.87-.29-3.56,1.33-2.61,5.98-1.22,4.6-10.54,12.64-11.78,9.4-.3-.79,.5-2.11,2.63-2.55,3.52-.73,3.25-2.91,1.57-3.13-2.64-.34-3.38-.34-6.53-1.08-1.24-.13-1.2-1.78,.26-1.76h0Z"/><path class="cls-1" d="M41.54,64.75c-.85,.86-1.83,2.05-1.96,3.01-.28,2.08,.78,3.91,3.43,3.87,2.84-.05,3.77-2.1,8.51-4.99,1.33-.81,2.97-2.17,3.65-2.28,.26,0,.64,.08,.62,.58-.4,1.89-.84,3.17-.35,4.78,.34,1.14,1.85,1.85,2.94,1.03,1.81-1.37,1.83-2.15,4.18-5.24,.39-.51,1.81-2.85,2.47-2.54,.55,.26,.4,1.02,.29,1.61-.49,2.89-1.75,7.46,3.96,6.75,1.36-.17,2.45-1.08,1.42-2.06-.62-.59-1.32-.16-2.1-.34-1.83-.42,2.7-8.77,.54-10.32-3.04-2.18-5.86,1.68-7.98,4.5-.83,1.11-1.45,.62-1.99-.94-.6-1.74-4.22-.47-6.29,.6-3.31,1.71-9.43,7.43-10,4.57-.1-.49,.7-1.59,2.19-2.13,1.75-.63,3.72-1.2,3.72-2.25,0-.81-.49-1.38-1.02-1.35-2.44,.14-5.27,.78-8.51-.11-.74,0-1.05-1.86,1.13-1.62,.58,.06,1.87,.15,6.77,.25,3.45,.07,3.53-2.52,3.07-3.89-2.87,.86-4.33,.76-7.37,.76-3.19,0-7.49,.44-7.3,3.51,.15,2.59,3.78,3.3,5.66,3.51,.54-.05,.71,.46,.32,.73h0Z"/><path class="cls-3" d="M31.07,58.12c.29-1.08,.93-1.32,1.76-1.52,1.24-.41,2.99-.95,4.05-1.14,2.7-.67,3.47-.51,3.82-2.38,.24-1.3-.32-1.92-.32-1.92,0,0-5.89,1.84-7.07,2.17-1.03,.44-.83-.64-.83-.64,0,0-.15,.69,.49-2.1,1.93-8.48,.8-10.75-.73-12.04-3.88-3.21-18.05,3.45-28.18,11.45-3.38,2.94-5.33,3.62-3.13,5.97,1.96,1.96,3.23,.49,3.23,.49,1.86-1.47,5.87-5.58,8.51-7.54,3.76-2.79,8.95-6.8,13.55-7.88,3.65-.92,4.75,.15,4.26,3.87-.29,3.19-2.74,10.37-2.74,10.37,0,0-3.77,1.69-4.89,2.1-.88,.33-1.81,.1-1.91,2.1-.05,2.15,1.26,1.34,2.13,1.01,.68-.26,2.27-1.01,2.86-1.26,.44-.34,.93-.05,.69,.59-.44,1.42-1.23,3.72-2.74,7.05-1.91,4.55-5.33,10.76-5.77,12.33,.05,1.03,1.17,1.17,2.66,1.2,1.36-.1,1.99-1.05,1.99-1.05,0,0,1.77-3.81,4.5-10.52,1.98-4.87,3.27-8.9,3.82-10.72h0Z"/><path class="cls-1" d="M79.78,59.9c-2.12-.61-3.98,1.9-4.52,4.14-.49,2.04-.23,4.79,1.61,5.14,1.48,.28,3.2-1.01,3.64-3.41,.12-.64,.39-2.69,.47-3.22,.51-3.25,.89-4.68,.89-4.68,1.77-6.79,6.02-20,7.17-20.77,1.2-.8,4.5-.94,3.47,1.82-1.61,4.29-3.48,8.08-5.17,13.37-1.98,6.2-5.82,16.15-2.4,16.59,1.6,.21,2.25-1.27,3.21-.52,1.47,1.15-.14,3.23-2.97,3.5-3.9,.14-3.81-2.14-5.54-1.16-5.54,3.15-8.95-1.25-7.86-6.77,.93-4.73,4.57-8.06,8.64-6.02,0,0,1.04,.52,.95,1.4-.07,.68-.58,.82-1.6,.58h0Z"/><text class="cls-2" transform="translate(112.98 58.38)"><tspan x="0" y="0">®</tspan></text></svg>